<svg xmlns="http://www.w3.org/2000/svg" fill="none" viewBox="0 0 128 128" id="Chroma--Streamline-Svg-Logos" height="128" width="128">
  <desc>
    Chroma Streamline Icon: https://streamlinehq.com
  </desc>
  <path fill="#ffde2d" d="M84.88839999999999 104.10666666666665c23.0732 0 41.77773333333333 -17.956266666666664 41.77773333333333 -40.10653333333333 0 -22.150266666666667 -18.70453333333333 -40.10653333333333 -41.77773333333333 -40.10653333333333 -23.0732 0 -41.77773333333333 17.956266666666664 -41.77773333333333 40.10653333333333 0 22.150266666666667 18.70453333333333 40.10653333333333 41.77773333333333 40.10653333333333Z" stroke-width="1.3333"></path>
  <path fill="#327eff" d="M43.111066666666666 104.10666666666665c23.0732 0 41.77773333333333 -17.956266666666664 41.77773333333333 -40.10653333333333 0 -22.150266666666667 -18.70453333333333 -40.10653333333333 -41.77773333333333 -40.10653333333333C20.037866666666666 23.8936 1.3333333333333333 41.849866666666664 1.3333333333333333 64.00013333333334 1.3333333333333333 86.15039999999999 20.037866666666666 104.10666666666665 43.111066666666666 104.10666666666665Z" stroke-width="1.3333"></path>
  <path fill="#ff6446" d="M84.88866666666667 64.00013333333334c0 22.150399999999998 -18.704666666666665 40.10626666666666 -41.778 40.10626666666666V64.00013333333334h41.778Zm-41.778 0c0 -22.150266666666667 18.70453333333333 -40.10653333333333 41.778 -40.10653333333333v40.10653333333333H43.11066666666666Z" stroke-width="1.3333"></path>
</svg>