<svg id="_图层_1" data-name="图层 1" xmlns="http://www.w3.org/2000/svg" viewBox="0 0 334.84 76.22">
  <defs>
    <style>
      .cls-1 {
        fill: currentColor;
      }
    </style>
  </defs>
  <path class="cls-1" d="M308.56,23.63c-5.04,0-9.73,1.43-13.73,3.88V1.08l-12.56,4.61v70h12.56v-3.35c4,2.46,8.71,3.88,13.73,3.88,14.49,0,26.29-11.79,26.29-26.29s-11.79-26.29-26.29-26.29h0ZM308.56,63.88c-6.87,0-12.57-4.98-13.73-11.51v-4.91c1.16-6.54,6.88-11.51,13.73-11.51,7.7,0,13.96,6.26,13.96,13.96s-6.26,13.96-13.96,13.96Z"></path>
  <path class="cls-1" d="M255.54,5.69v21.83c-4-2.46-8.71-3.88-13.73-3.88-14.49,0-26.29,11.79-26.29,26.29s11.79,26.29,26.29,26.29c5.04,0,9.73-1.43,13.73-3.88v3.35h12.56V1.08l-12.56,4.61ZM241.81,63.88c-7.7,0-13.96-6.26-13.96-13.96s6.26-13.96,13.96-13.96c6.87,0,12.57,4.98,13.73,11.51v4.91c-1.16,6.54-6.88,11.51-13.73,11.51Z"></path>
  <polygon class="cls-1" points="195.35 52.2 186.65 61.17 200.64 75.62 209.32 75.62 218.01 75.62 195.35 52.2"></polygon>
  <path class="cls-1" d="M167.14,4.59c.65,3.99.68,8.04.03,12.15-.03.17.16.3.31.21,3.82-2.21,7.82-3.69,12.01-4.33.12-.02.19-.13.17-.23-.68-4.13-.61-8.18-.03-12.16.02-.17-.16-.3-.31-.2-4.01,2.31-8.01,3.81-12.01,4.34-.12.01-.19.12-.17.23h0Z"></path>
  <path class="cls-1" d="M198.75,24.09l-19.07,19.72v-25.57c-4.49.67-8.7,2.11-12.56,4.57v52.83h12.56v-13.87l3.78-3.9.02.02,8.68-8.97-.02-.02,23.98-24.8h-17.37Z"></path>
  <path class="cls-1" d="M145.03,57.86c-2.56,4.45-7.17,7.2-12.13,7.2-5.96,0-11.3-3.96-13.32-9.85h38.87l.08-.42c.29-1.5.42-3.06.42-4.65,0-14.37-11.69-26.06-26.06-26.06s-26.06,11.69-26.06,26.06,11.69,26.06,26.06,26.06c9.63,0,18.43-5.28,22.98-13.77l.26-.49-11.1-4.08h-.01ZM132.88,35.19h.03c5.96,0,11.3,3.96,13.32,9.85h-26.67c2.02-5.89,7.36-9.85,13.32-9.85Z"></path>
  <path class="cls-1" d="M75.92,65.07c-5.96,0-11.29-3.96-13.32-9.85h38.87l.08-.42c.29-1.5.42-3.06.42-4.65,0-14.37-11.69-26.06-26.06-26.06s-26.06,11.69-26.06,26.06,11.69,26.06,26.06,26.06c9.63,0,18.43-5.28,22.98-13.77l.26-.49h0l-11.1-4.08c-2.56,4.45-7.17,7.2-12.13,7.2h-.01ZM75.92,35.19h.03c5.96,0,11.29,3.96,13.32,9.85h-26.67c2.03-5.89,7.36-9.85,13.32-9.85Z"></path>
  <path class="cls-1" d="M30.43,45.58l-10.2-1.91c-3.03-.56-4.98-2.25-4.98-4.33,0-1.5,1.61-4.35,7.68-4.35,5.53,0,9.36,3.5,10.25,6.26l10.9-4-.14-.42c-1.17-3.54-3.5-6.58-6.94-9.04-3.49-2.49-8.04-3.69-13.88-3.69s-10.98,1.5-14.78,4.34c-3.88,2.91-5.84,6.76-5.84,11.46,0,7.98,4.72,12.77,14.42,14.64l9.9,1.81c3.05.61,4.94,2.27,4.94,4.33,0,2.61-3.58,4.44-8.7,4.44-5.79,0-9.9-3.72-11.85-7.14L0,62.1l.14.39c1.3,3.8,3.89,7.07,7.7,9.71,3.78,2.6,8.65,3.95,14.51,3.98l.25.03c6.87,0,12.55-1.57,16.43-4.53,3.98-3.05,6-6.99,6-11.74,0-3.73-1.14-6.7-3.6-9.33-2.27-2.42-5.98-4.11-10.98-5.02h-.02Z"></path>
</svg>