<svg xmlns="http://www.w3.org/2000/svg" xmlns:xlink="http://www.w3.org/1999/xlink" width="500" zoomAndPan="magnify" viewBox="0 0 375 374.999991" height="500" preserveAspectRatio="xMidYMid meet" version="1.0"><defs><clipPath id="63947877ee"><path d="M 85.472656 68.105469 L 288.675781 68.105469 L 288.675781 307 L 85.472656 307 Z M 85.472656 68.105469 " clip-rule="nonzero"/></clipPath><clipPath id="d71df86578"><path d="M 180.4375 306.871094 L 90.855469 241.300781 C 87.472656 238.824219 85.472656 234.878906 85.472656 230.6875 L 85.472656 142.390625 L 180.4375 211.902344 Z M 194.5625 306.871094 L 284.148438 241.300781 C 287.53125 238.824219 289.53125 234.878906 289.53125 230.6875 L 289.53125 142.390625 L 194.5625 211.902344 Z M 180.089844 71.167969 L 92.210938 131.117188 L 187.179688 200.628906 L 187.5 200.382812 L 187.824219 200.628906 L 282.792969 131.117188 L 194.914062 71.167969 C 190.441406 68.117188 184.558594 68.117188 180.089844 71.167969 Z M 180.089844 71.167969 " clip-rule="nonzero"/></clipPath><clipPath id="22fb316b6b"><path d="M 151.125 110.546875 L 223.695312 110.546875 L 223.695312 152 L 151.125 152 Z M 151.125 110.546875 " clip-rule="nonzero"/></clipPath></defs><path fill="#5742ee" d="M 26.914062 115.820312 C 26.917969 114.230469 27.023438 112.648438 27.230469 111.074219 C 27.441406 109.496094 27.75 107.941406 28.164062 106.40625 C 28.574219 104.871094 29.085938 103.367188 29.695312 101.898438 C 30.300781 100.429688 31.003906 99.007812 31.796875 97.628906 C 32.59375 96.253906 33.472656 94.933594 34.441406 93.671875 C 35.40625 92.410156 36.453125 91.214844 37.574219 90.089844 C 38.699219 88.964844 39.890625 87.917969 41.152344 86.949219 C 42.410156 85.980469 43.726562 85.09375 45.105469 84.296875 L 169.363281 12.5625 C 170.742188 11.769531 172.167969 11.070312 173.636719 10.460938 C 175.105469 9.855469 176.609375 9.347656 178.144531 8.933594 C 179.683594 8.523438 181.238281 8.214844 182.816406 8.007812 C 184.394531 7.800781 185.976562 7.699219 187.566406 7.699219 C 189.15625 7.699219 190.742188 7.800781 192.320312 8.007812 C 193.894531 8.214844 195.453125 8.523438 196.988281 8.933594 C 198.523438 9.347656 200.027344 9.855469 201.5 10.460938 C 202.96875 11.070312 204.390625 11.769531 205.769531 12.5625 L 330.015625 84.296875 C 331.390625 85.09375 332.710938 85.976562 333.972656 86.945312 C 335.234375 87.914062 336.425781 88.960938 337.550781 90.085938 C 338.675781 91.210938 339.722656 92.40625 340.691406 93.667969 C 341.65625 94.929688 342.539062 96.25 343.335938 97.625 C 344.132812 99.003906 344.832031 100.425781 345.445312 101.894531 C 346.054688 103.363281 346.566406 104.867188 346.976562 106.402344 C 347.390625 107.9375 347.703125 109.492188 347.910156 111.070312 C 348.121094 112.648438 348.226562 114.230469 348.230469 115.820312 L 348.230469 259.292969 C 348.226562 260.886719 348.121094 262.46875 347.910156 264.046875 C 347.699219 265.621094 347.390625 267.179688 346.976562 268.714844 C 346.5625 270.25 346.050781 271.753906 345.441406 273.222656 C 344.832031 274.691406 344.128906 276.113281 343.335938 277.492188 C 342.539062 278.867188 341.65625 280.1875 340.6875 281.449219 C 339.71875 282.710938 338.675781 283.90625 337.550781 285.03125 C 336.425781 286.15625 335.234375 287.203125 333.972656 288.171875 C 332.710938 289.140625 331.390625 290.023438 330.015625 290.820312 L 205.769531 362.5625 C 204.390625 363.355469 202.96875 364.054688 201.496094 364.660156 C 200.027344 365.269531 198.523438 365.777344 196.988281 366.1875 C 195.453125 366.597656 193.894531 366.90625 192.316406 367.113281 C 190.742188 367.320312 189.15625 367.421875 187.566406 367.421875 C 185.976562 367.421875 184.394531 367.320312 182.816406 367.113281 C 181.238281 366.90625 179.683594 366.597656 178.148438 366.1875 C 176.609375 365.777344 175.105469 365.269531 173.636719 364.660156 C 172.167969 364.054688 170.742188 363.355469 169.363281 362.5625 L 45.105469 290.820312 C 43.730469 290.023438 42.410156 289.140625 41.152344 288.171875 C 39.890625 287.199219 38.699219 286.152344 37.578125 285.027344 C 36.453125 283.902344 35.410156 282.707031 34.441406 281.445312 C 33.476562 280.183594 32.59375 278.863281 31.800781 277.488281 C 31.003906 276.109375 30.304688 274.6875 29.695312 273.21875 C 29.085938 271.75 28.578125 270.246094 28.164062 268.710938 C 27.75 267.175781 27.441406 265.621094 27.230469 264.042969 C 27.023438 262.46875 26.917969 260.882812 26.914062 259.292969 Z M 26.914062 115.820312 " fill-opacity="1" fill-rule="nonzero"/><g clip-path="url(#63947877ee)"><g clip-path="url(#d71df86578)"><path fill="#ffffff" d="M 85.472656 68.117188 L 85.472656 306.871094 L 288.675781 306.871094 L 288.675781 68.117188 Z M 85.472656 68.117188 " fill-opacity="1" fill-rule="nonzero"/></g></g><g clip-path="url(#22fb316b6b)"><path fill="#5742ee" d="M 190.25 121.738281 C 190.269531 121.738281 190.277344 121.730469 190.277344 121.710938 C 190.132812 119.503906 190.019531 117.296875 189.996094 115.085938 C 189.992188 114.480469 190.011719 113.910156 190.066406 113.371094 C 190.195312 112 190.796875 110.546875 192.441406 110.582031 C 193.207031 110.597656 194.03125 110.90625 194.773438 111.269531 C 195.363281 111.558594 196.03125 111.921875 196.777344 112.351562 C 198.390625 113.289062 200 114.242188 201.601562 115.203125 C 204.738281 117.09375 207.867188 119.003906 210.980469 120.9375 C 211.199219 121.070312 211.414062 121.203125 211.625 121.328125 C 215.09375 123.441406 217.539062 124.929688 220.441406 126.824219 C 221.175781 127.300781 221.820312 127.785156 222.378906 128.273438 C 222.808594 128.644531 223.210938 129.195312 223.378906 129.738281 C 223.863281 131.328125 222.570312 132.738281 221.472656 133.691406 C 220.710938 134.355469 219.882812 135.015625 218.988281 135.675781 C 213.964844 139.382812 208.835938 143.117188 203.804688 146.632812 C 202.101562 147.824219 200.292969 148.996094 198.433594 150.003906 C 197.714844 150.394531 196.925781 150.753906 196.0625 151.078125 C 195.527344 151.28125 195.007812 151.421875 194.511719 151.5 C 192.675781 151.792969 191.734375 150.242188 191.328125 148.734375 C 191.136719 148.023438 191.003906 147.265625 190.933594 146.46875 C 190.761719 144.578125 190.644531 142.285156 190.574219 140.859375 C 190.558594 140.554688 190.515625 140.265625 190.453125 139.996094 C 190.371094 139.660156 190.15625 139.414062 189.84375 139.285156 C 189.234375 139.027344 188.507812 138.964844 187.839844 138.914062 C 187.625 138.898438 187.375 138.890625 187.085938 138.882812 C 185.945312 138.855469 184.769531 138.863281 183.558594 138.910156 C 182.363281 138.957031 180.328125 139.027344 177.453125 139.121094 C 176.578125 139.152344 174.644531 139.175781 171.648438 139.199219 C 169.179688 139.214844 166.621094 139.296875 163.96875 139.445312 C 161.535156 139.582031 159.113281 139.835938 156.675781 139.933594 C 155.882812 139.964844 154.988281 139.945312 154.242188 139.699219 C 153.09375 139.320312 152.40625 138.394531 152.007812 137.28125 C 151.765625 136.601562 151.585938 135.890625 151.472656 135.136719 C 151.1875 133.242188 151.125 131.296875 151.183594 129.378906 C 151.207031 128.65625 151.273438 127.96875 151.5 127.285156 C 152.378906 124.601562 155.289062 124.09375 157.71875 123.832031 C 158.308594 123.769531 159.078125 123.699219 160.035156 123.625 C 164.929688 123.230469 169.300781 122.910156 173.144531 122.671875 C 173.402344 122.65625 173.652344 122.636719 173.894531 122.621094 C 176.339844 122.445312 178.785156 122.273438 181.230469 122.101562 C 184.234375 121.894531 187.242188 121.824219 190.25 121.738281 Z M 190.25 121.738281 " fill-opacity="1" fill-rule="nonzero"/></g></svg>