<svg xmlns="http://www.w3.org/2000/svg" width="450" height="280" viewBox="0 0 450 280" class="cursor-pointer h-24 flex-shrink-0 w-149"><g fill="none" fill-rule="nonzero"><path fill="#0005DE" d="M97.705 6.742c58.844 0 90.962 34.353 90.962 98.341v21.843c-15.118-2.479-30.297-6.573-45.558-12.3v-9.543c0-35.97-15.564-56.281-45.404-56.281s-45.404 20.31-45.404 56.281v72.48c0 36.117 15.65 56.818 45.404 56.818 26.78 0 42.133-16.768 44.936-46.452q22.397 6.473 44.905 9.356c-6.15 51.52-37.492 79.155-89.841 79.155-58.678 0-90.963-34.72-90.963-98.878v-72.479c0-63.988 32.119-98.34 90.963-98.34m253.627 0c58.844 0 90.963 34.353 90.963 98.341v72.48c0 64.157-32.285 98.877-90.963 98.877-52.438 0-83.797-27.729-89.874-79.415 15-2.026 29.965-5.252 44.887-9.67 2.658 30.042 18.036 47.026 44.987 47.026 29.755 0 45.404-20.7 45.404-56.819v-72.479c0-35.97-15.564-56.281-45.404-56.281s-45.403 20.31-45.403 56.281v8.778c-15.262 5.868-30.44 10.104-45.559 12.725v-21.503c0-63.988 32.118-98.34 90.962-98.34m-164.37 140.026.57.09.831.127-.83-.128a234.5 234.5 0 0 0 35.979 2.79q18.408.002 36.858-2.928l1.401-.226a242 242 0 0 0 1.45-.244l-1.037.175q.729-.12 1.458-.247l-.421.072 1.26-.219-.84.147a244 244 0 0 0 2.8-.5l-.792.144q.648-.117 1.298-.239l-.506.094q.66-.122 1.322-.248l-.816.154q.759-.142 1.518-.289l-.702.135a247 247 0 0 0 5.364-1.084l-.463.098a250 250 0 0 0 3.928-.864l-.785.178 1.45-.33-.665.152q.597-.137 1.193-.276l-.528.123a253 253 0 0 0 3.685-.882l-.254.063q.683-.168 1.366-.34l-1.112.277q.809-.2 1.618-.405l-.506.128q.818-.206 1.634-.417l-1.128.289q.71-.18 1.419-.365l1.506-.397a259 259 0 0 0 1.804-.488l-.433.119a261 261 0 0 0 3.751-1.053l-.681.196a264 264 0 0 0 1.735-.502l-1.054.306q.636-.184 1.272-.37l-.218.064 1.238-.366-1.02.302a266 266 0 0 0 2.936-.882l-1.026.312q.71-.214 1.42-.433l-.394.121q.675-.207 1.35-.418l-.955.297q.8-.246 1.6-.499l-.645.202q.86-.269 1.72-.543l-1.076.341q.666-.21 1.33-.423l-.254.082q.833-.266 1.665-.539l-1.41.457q.874-.28 1.75-.568l-.34.111q.702-.229 1.403-.462l-1.063.351q.818-.269 1.634-.542l-.571.19a276 276 0 0 0 4.038-1.378l-.735.256q.657-.228 1.315-.46l-.58.204q16.86-5.903 33.78-14.256l-7.114-12.453 42.909 6.553-13.148 45.541-7.734-13.537q-23.832 11.94-47.755 19.504l-.199.063a298 298 0 0 1-11.65 3.412 288 288 0 0 1-10.39 2.603 280 280 0 0 1-11.677 2.431 273 273 0 0 1-11.643 1.903 263.5 263.5 0 0 1-36.858 2.599q-17.437 0-34.844-2.323l-.227-.03q-.635-.085-1.27-.174l1.497.204a268 268 0 0 1-13.673-2.182 275 275 0 0 1-12.817-2.697 282 282 0 0 1-11.859-3.057 291 291 0 0 1-7.21-2.123c-17.23-5.314-34.43-12.334-51.59-21.051l-8.258 14.455-13.148-45.541 42.909-6.553-6.594 11.544q18.421 9.24 36.776 15.572l1.316.45 1.373.462-.831-.278q.795.267 1.589.53l-.758-.252q.632.211 1.264.419l-.506-.167q.642.212 1.284.42l-.778-.253a271 271 0 0 0 3.914 1.251l-.227-.07a267 267 0 0 0 3.428 1.046l-.194-.058 1.315.389-1.121-.331q.864.256 1.73.508l-.609-.177q.826.241 1.651.478l-1.043-.3 1.307.375-.264-.075q.802.228 1.603.452l-1.34-.377q1.034.294 2.067.58l-.727-.203q.713.2 1.426.394l-.699-.192q.62.171 1.237.338l-.538-.146a259 259 0 0 0 3.977 1.051l-.66-.17q.683.177 1.367.35l-.707-.18q.687.175 1.373.348l-.666-.168q.738.186 1.475.368l-.809-.2q.716.179 1.43.353l-.621-.153a253 253 0 0 0 3.766.898l-.308-.07q.735.17 1.472.336l-1.164-.266q.747.173 1.496.34l-.332-.074q.845.19 1.69.374l-1.358-.3q.932.21 1.864.41l-.505-.11q.726.159 1.452.313l-.947-.203q.72.156 1.44.307l-.493-.104q.684.144 1.368.286l-.875-.182q.743.155 1.485.306l-.61-.124q.932.192 1.864.376l-1.254-.252q.904.184 1.809.361l-.555-.109q.752.15 1.504.293l-.95-.184q.69.135 1.377.265l-.427-.081q.784.15 1.569.295l-1.142-.214q.717.136 1.434.268l-.292-.054a244 244 0 0 0 3.808.673l-.68-.116 1.063.18-.383-.064q1.076.18 2.152.352z"></path></g></svg>